# xmcd
#
# Track frame offsets:
#	150
#	14566
#	29281
#	42347
#	55259
#	68472
#	80561
#	92871
#	102634
#	114798
#	125457
#	140771
#	150307
#	163673
#	177481
#	190390
#
# Disc length: 2691 seconds
#
# Revision: 0
# Processed by: cddbd v1.5.2PL0 Copyright (c) Steve Scherf et al.
# Submitted via: EasyCDDAExtractor 16.0.9.1
#
DISCID=d80a8110
DTITLE=Los Cadetes de Linares - Disco de Oro
DYEAR=2012
DGENRE=Corridos
TTITLE0=Los dos amigos
TTITLE1=El palomito
TTITLE2=No hay novedad
TTITLE3=Una página más
TTITLE4=Las tres tumbas
TTITLE5=Mi amigo
TTITLE6=Dos coronas a mi madre
TTITLE7=Quiero que sepas
TTITLE8=Mitigando mi dolor
TTITLE9=En un tiempo
TTITLE10=No más las mujeres quedan
TTITLE11=El asesino
TTITLE12=Mi último viaje
TTITLE13=Prenda querida (a la sombra de un mezquite)
TTITLE14=Huerta de Dalia
TTITLE15=El rancherito
EXTD=
EXTT0=
EXTT1=
EXTT2=
EXTT3=
EXTT4=
EXTT5=
EXTT6=
EXTT7=
EXTT8=
EXTT9=
EXTT10=
EXTT11=
EXTT12=
EXTT13=
EXTT14=
EXTT15=
PLAYORDER=
